<svg xmlns:osb="http://www.openswatchbook.org/uri/2009/osb" xmlns="http://www.w3.org/2000/svg" width="210mm" height="297mm" viewBox="0 0 210 297" version="1.1" id="svg8">
  <defs id="defs2">
    <linearGradient id="linearGradient5013" osb:paint="solid">
      <stop offset="0" id="stop5011" stop-color="#666" stop-opacity="1"/>
    </linearGradient>
  </defs>
  <g id="layer1" stroke-opacity="1">
    <path d="M55.573 238.046c-1.54-.25-2.51-.945-3.157-2.228-.478-.947-.502-5.472-.495-90.743.008-99.152-.145-91.383 1.836-93.666.546-.63 1.605-1.444 2.352-1.81l1.358-.667H158.14l1.019.766c2.117 1.595 1.943-7.263 1.857 94.607-.072 86.733-.103 91.486-.578 92.2-1.132 1.705 2.577 1.589-52.893 1.672-27.908.028-51.296-.019-51.973-.139zm23.924-11.853v-5.469H65.568v10.938h13.929zm34.397 0v-5.469h-13.645v10.938h13.645zm34.68 0v-5.469h-13.929v10.938h13.929zM86.32 200.39v-13.602H58.746v27.205H86.32zm34.68 0v-13.602H93.426v27.205H121zm34.397 0v-13.602h-27.574v27.205h27.574zm-74.478-18.37v-2.245H64.147v2.056c0 1.13.086 2.141.189 2.244.105.111 3.878.195 8.386.195h8.196zm34.621-.084l.084-2.178-8.47.084-8.468.083-.087 1.795c-.047.986-.018 1.966.064 2.177.123.317 1.635.373 8.472.311l8.322-.083zm34.455.084v-2.245h-16.771v4.488h16.771zm-.916-8.01l.632-.436v-24.369h4.264v-12.342h-4.264v-1.808c0-1.55-.089-1.87-.632-2.245-.565-.392-5.278-.436-44.74-.436-43.006 0-44.126.012-44.78.536l-.671.536v39.927l.671.536c.655.522 1.774.536 44.78.536 39.462 0 44.175-.056 44.74-.436zm-68.16-55.938v-4.768H64.43v9.536h16.49zm34.396 0v-4.768H98.827v9.536h16.488zm34.616-.084l.078-4.698h-16.785v9.545l8.315-.084 8.314-.083zM80.854 101.72l-.077-4.838-8.173-.084-8.173-.083v9.825h16.501zm69-.084v-4.768h-16.488l-.078 4.842-.078 4.843 8.322-.084 8.321-.083zm-39.24 3.076c4.977-1.278 9.02-5.475 10.072-10.452 1.95-9.228-6.207-17.792-15.583-16.358-10.176 1.555-15.162 12.756-9.474 21.283 3.11 4.663 9.368 6.97 14.986 5.527zM80.92 85.228V80.46H64.43v9.536h16.49zm69.012.084l-.078-4.698-8.314-.084-8.315-.083v9.544h16.785zM91.654 64.697l.075-8.625H81.203v17.402l5.188-.083 5.188-.083zm40.148 4.698v-.98h-4.263v1.96h4.263zm10.234-.28v-.981h-3.98v1.96h3.98zm12.223 0v-.981h-4.263v1.96h4.263zm-10.517-4.599c0-2.272-.08-2.805-.45-2.945-.247-.083-2.486-.166-4.975-.166h-4.525v5.89h9.95zm-12.224-.577v-1.964h-1.99v3.927h1.99zm22.741.7v-.98h-3.98v1.96h3.98zm0-3.366v-.98h-3.98v1.96h3.98zm-16.487-5.61V53.28h-2.558v4.767h2.558zm12.792-.139V53h-2.558v5.05h2.558zm-6.822-.138v-2.384h-2.559v4.768h2.559z" id="path5273" fill="red" fill-opacity="1" stroke="none" stroke-width=".534" stroke-miterlimit="4" stroke-dasharray="none"/>
    <path d="M161.59 232.404V54.912c0-3.014-.493-3.94-1.273-4.843-.944-1.091-2.35-1.816-4.376-1.816H61.295c-7.043-.14-9.975 3.396-9.962 9.54v173.842c-.526 6.058 2.774 7.38 7.388 7.075h97.253c4.88.222 5.777-2.633 5.617-6.307z" id="path4551" fill="red" fill-opacity="1" stroke="none" stroke-width=".685" stroke-linecap="butt" stroke-linejoin="miter" stroke-miterlimit="4" stroke-dasharray="none"/>
    <path d="M58.818 134.318v38.084c.156 1.358.894 2.003 2.095 2.083h86.817c1.01-.166 2.113-.194 2.11-2.1V134.34c-.205-1.78-1.172-1.8-2.048-2.039h-86.88c-.913.195-1.859.337-2.094 2.017z" id="path4564" fill="#deebf5" fill-opacity="1" stroke="#000" stroke-width="0" stroke-linecap="butt" stroke-linejoin="miter" stroke-miterlimit="4" stroke-dasharray="none"/>
    <path d="M95.795 145.837l-.059 16.493h16.745l-.064-15.677-.721-.727z" id="path4589" fill="#32283a" fill-opacity="1" stroke="#000" stroke-width="0" stroke-linecap="butt" stroke-linejoin="miter" stroke-miterlimit="4" stroke-dasharray="none"/>
    <path d="M61.62 146.343l.033 14.112 14.238-.056v-14.08z" id="path4591" fill="#4f3034" fill-opacity="1" stroke="#000" stroke-width="0" stroke-linecap="butt" stroke-linejoin="miter" stroke-miterlimit="4" stroke-dasharray="none"/>
    <ellipse id="path4593" cx="68.804" cy="153.336" rx="3.763" ry="3.713" fill="#b64846" fill-opacity="1" stroke="#000" stroke-width="0" stroke-miterlimit="4" stroke-dasharray="none"/>
    <ellipse id="path4610" cx="107.088" cy="91.481" rx="13.791" ry="13.607" fill="#32293f" fill-opacity="1" stroke="#000" stroke-width="0" stroke-miterlimit="4" stroke-dasharray="none"/>
    <path id="rect4614" fill="#e5e4e3" fill-opacity="1" stroke="#000" stroke-width="0" stroke-miterlimit="4" stroke-dasharray="none" d="M64.335 80.595h16.55v9.525h-16.55z"/>
    <path id="rect4667" fill="#deebf5" fill-opacity="1" stroke="#000" stroke-width="0" stroke-miterlimit="4" stroke-dasharray="none" d="M93.297 186.732h27.583v27.215H93.297z"/>
    <path id="rect4614-2" fill="#e5e4e3" fill-opacity="1" stroke="#000" stroke-width="0" stroke-miterlimit="4" stroke-dasharray="none" d="M64.335 96.924h16.55v9.525h-16.55z"/>
    <path id="rect4614-2-6" fill="#e5e4e3" fill-opacity="1" stroke="#000" stroke-width="0" stroke-miterlimit="4" stroke-dasharray="none" d="M64.335 113.253h16.55v9.525h-16.55z"/>
    <path id="rect4614-6" fill="#e5e4e3" fill-opacity="1" stroke="#000" stroke-width="0" stroke-miterlimit="4" stroke-dasharray="none" d="M133.291 80.595h16.55v9.525h-16.55z"/>
    <path id="rect4614-2-8" fill="#e5e4e3" fill-opacity="1" stroke="#000" stroke-width="0" stroke-miterlimit="4" stroke-dasharray="none" d="M133.291 96.924h16.55v9.525h-16.55z"/>
    <path id="rect4614-2-6-5" fill="#e5e4e3" fill-opacity="1" stroke="#000" stroke-width="0" stroke-miterlimit="4" stroke-dasharray="none" d="M133.291 113.253h16.55v9.525h-16.55z"/>
    <path id="rect4614-2-6-2" fill="#e5e4e3" fill-opacity="1" stroke="#000" stroke-width="0" stroke-miterlimit="4" stroke-dasharray="none" d="M98.813 113.253h16.55v9.525h-16.55z"/>
    <path id="rect4614-2-6-2-8" fill="#e5e4e3" fill-opacity="1" stroke="#000" stroke-width="0" stroke-miterlimit="4" stroke-dasharray="none" d="M65.714 220.75h13.791v10.886H65.714z"/>
    <path d="M117.83 154.118v-4.087h2.942v8.175h-2.942z" id="LED" fill="#fff" fill-opacity="1" stroke="#32283a" stroke-width=".411" stroke-miterlimit="4" stroke-dasharray="none"/>
    <path id="rect4614-2-6-2-8-3-8-3-9" transform="rotate(-90)" fill="#e5e4e3" fill-opacity="1" stroke="none" stroke-width="0" stroke-miterlimit="4" stroke-dasharray="none" d="M-73.462 81.121h17.421v10.42h-17.421z"/>
    <path id="rect4866" fill="#32293f" fill-opacity="1" stroke="none" stroke-width="0" stroke-miterlimit="4" stroke-dasharray="none" d="M84.009 58.779h4.34v11.272h-4.34z"/>
    <path d="M133.291 181.97v-2.043h16.55v4.084h-16.55z" id="path5005" fill="#000" fill-opacity="1" stroke="#000" stroke-width="0" stroke-miterlimit="4" stroke-dasharray="none"/>
    <path d="M98.813 181.97v-2.043h16.55v4.084h-16.55z" id="path5007" fill="#000" fill-opacity="1" stroke="#000" stroke-width="0" stroke-miterlimit="4" stroke-dasharray="none"/>
    <path d="M64.335 181.97v-2.043h16.549v4.084H64.335z" id="path5009" fill="#000" fill-opacity="1" stroke="#000" stroke-width="0" stroke-miterlimit="4" stroke-dasharray="none"/>
    <path d="M141.165 150.822v18.79h5.038l2.225-2.166v-14.269l-2.356-2.291z" id="path5021" fill="#4d4d4d" stroke="none" stroke-width=".362" stroke-linecap="butt" stroke-linejoin="miter" stroke-miterlimit="4" stroke-dasharray="none"/>
    <path d="M127.586 137.214l-.023 11.706 26.24.055-.07-11.751z" id="path5025" fill="#000" stroke="#000" stroke-width=".362" stroke-linecap="butt" stroke-linejoin="miter"/>
    <path id="rect4614-2-6-2-8-7" fill="#e5e4e3" fill-opacity="1" stroke="#000" stroke-width="0" stroke-miterlimit="4" stroke-dasharray="none" d="M100.192 220.75h13.791v10.886h-13.791z"/>
    <path id="rect4614-2-6-2-8-7-7" fill="#e5e4e3" fill-opacity="1" stroke="#000" stroke-width="0" stroke-miterlimit="4" stroke-dasharray="none" d="M134.67 220.75h13.791v10.886H134.67z"/>
    <path id="rect4667-9" fill="#deebf5" fill-opacity="1" stroke="#000" stroke-width="0" stroke-miterlimit="4" stroke-dasharray="none" d="M127.775 186.732h27.583v27.215h-27.583z"/>
    <path id="rect4667-9-8" fill="#deebf5" fill-opacity="1" stroke="#000" stroke-width="0" stroke-miterlimit="4" stroke-dasharray="none" d="M58.818 186.732h27.583v27.215H58.818z"/>
    <path d="M133.891 61.62l-.033 5.583h9.741l-.039-5.306-.42-.25z" id="path4589-2" fill="#32283a" fill-opacity="1" stroke="none" stroke-width="0" stroke-linecap="butt" stroke-linejoin="miter" stroke-miterlimit="4" stroke-dasharray="none"/>
    <path d="M141.216 53.138v4.637h2.442v-4.683z" id="path5104" fill="#8e9fa4" fill-opacity="1" stroke="none" stroke-width=".362" stroke-linecap="butt" stroke-linejoin="miter"/>
    <path d="M135.305 53.3v4.636h2.442v-4.682z" id="path5104-7" fill="#8e9fa4" fill-opacity="1" stroke="none" stroke-width=".362" stroke-linecap="butt" stroke-linejoin="miter"/>
    <path d="M148.024 53.197v4.636h2.442v-4.682z" id="path5104-7-8" fill="#8e9fa4" fill-opacity="1" stroke="none" stroke-width=".362" stroke-linecap="butt" stroke-linejoin="miter"/>
    <path d="M154.133 60.295h-3.816v1.764h3.853z" id="path5104-7-8-1" fill="#8e9fa4" fill-opacity="1" stroke="none" stroke-width=".279" stroke-linecap="butt" stroke-linejoin="miter"/>
    <path d="M154.161 63.78h-3.815v1.764h3.853z" id="path5104-7-8-1-5" fill="#8e9fa4" fill-opacity="1" stroke="none" stroke-width=".279" stroke-linecap="butt" stroke-linejoin="miter"/>
    <path d="M154.023 68.258h-3.815v1.764h3.853z" id="path5104-7-8-1-5-7" fill="#8e9fa4" fill-opacity="1" stroke="none" stroke-width=".279" stroke-linecap="butt" stroke-linejoin="miter"/>
    <path d="M141.905 68.349h-3.815v1.764h3.853z" id="path5104-7-8-1-5-7-8" fill="#8e9fa4" fill-opacity="1" stroke="none" stroke-width=".279" stroke-linecap="butt" stroke-linejoin="miter"/>
    <path d="M131.585 68.554h-3.816v1.763h3.853z" id="path5104-7-8-1-5-7-8-1" fill="#8e9fa4" fill-opacity="1" stroke="none" stroke-width=".279" stroke-linecap="butt" stroke-linejoin="miter"/>
    <path d="M129.516 62.139v3.765h1.788v-3.802z" id="path5104-7-8-1-5-7-8-1-6" fill="#8e9fa4" fill-opacity="1" stroke="none" stroke-width=".279" stroke-linecap="butt" stroke-linejoin="miter"/>
    <ellipse id="path5226" cx="156.481" cy="53.748" rx="2.033" ry="2.006" fill="#fff" fill-opacity="1" stroke="none" stroke-width=".07" stroke-miterlimit="4" stroke-dasharray="none"/>
    <ellipse id="path5226-4" cx="57.822" cy="54.252" rx="2.033" ry="2.006" fill="#fff" fill-opacity=".986" stroke="none" stroke-width=".07" stroke-miterlimit="4" stroke-dasharray="none"/>
    <ellipse id="path5226-4-0" cx="56.093" cy="233.446" rx="2.033" ry="2.006" fill="#fff" fill-opacity="1" stroke="none" stroke-width=".07" stroke-miterlimit="4" stroke-dasharray="none"/>
    <ellipse id="path5226-4-0-8" cx="154.875" cy="234.217" rx="2.033" ry="2.006" fill="#fff" fill-opacity="1" stroke="none" stroke-width=".07" stroke-miterlimit="4" stroke-dasharray="none"/>
  </g>
</svg>
