<?xml version="1.0" encoding="UTF-8" standalone="no"?>
<!-- Created with Inkscape (http://www.inkscape.org/) -->

<svg
   xmlns:osb="http://www.openswatchbook.org/uri/2009/osb"
   xmlns:dc="http://purl.org/dc/elements/1.1/"
   xmlns:cc="http://creativecommons.org/ns#"
   xmlns:rdf="http://www.w3.org/1999/02/22-rdf-syntax-ns#"
   xmlns:svg="http://www.w3.org/2000/svg"
   xmlns="http://www.w3.org/2000/svg"
   xmlns:sodipodi="http://sodipodi.sourceforge.net/DTD/sodipodi-0.dtd"
   xmlns:inkscape="http://www.inkscape.org/namespaces/inkscape"
   width="210mm"
   height="297mm"
   viewBox="0 0 210 297"
   version="1.1"
   id="svg8"
   inkscape:version="0.92.4 (5da689c313, 2019-01-14)"
   sodipodi:docname="board.svg">
  <defs
     id="defs2">
    <linearGradient
       id="linearGradient5013"
       osb:paint="solid">
      <stop
         style="stop-color:#666666;stop-opacity:1;"
         offset="0"
         id="stop5011" />
    </linearGradient>
  </defs>
  <sodipodi:namedview
     id="base"
     pagecolor="#ffffff"
     bordercolor="#666666"
     borderopacity="1.0"
     inkscape:pageopacity="0.0"
     inkscape:pageshadow="2"
     inkscape:zoom="0.45383333"
     inkscape:cx="428.27702"
     inkscape:cy="488.22834"
     inkscape:document-units="mm"
     inkscape:current-layer="layer1"
     showgrid="false"
     showguides="true"
     inkscape:window-width="1920"
     inkscape:window-height="1001"
     inkscape:window-x="-9"
     inkscape:window-y="-9"
     inkscape:window-maximized="1" />
  <metadata
     id="metadata5">
    <rdf:RDF>
      <cc:Work
         rdf:about="">
        <dc:format>image/svg+xml</dc:format>
        <dc:type
           rdf:resource="http://purl.org/dc/dcmitype/StillImage" />
        <dc:title></dc:title>
      </cc:Work>
    </rdf:RDF>
  </metadata>
  <g
     inkscape:label="Capa 1"
     inkscape:groupmode="layer"
     id="layer1">
    <path
       style="fill:#ff0000;fill-opacity:1;stroke:none;stroke-width:0.53360021;stroke-miterlimit:4;stroke-dasharray:none;stroke-opacity:1"
       d="m 55.572694,238.04577 c -1.538874,-0.25 -2.50942,-0.94445 -3.156829,-2.22776 -0.477496,-0.9472 -0.502219,-5.47188 -0.494996,-90.7427 0.0085,-99.152067 -0.144442,-91.38352 1.836094,-93.66601 0.546383,-0.63054 1.604705,-1.44442 2.351643,-1.81107 l 1.358041,-0.66669 h 50.337293 50.33725 l 1.0186,0.76667 c 2.1172,1.59444 1.94332,-7.263533 1.8572,94.60684 -0.0722,86.73246 -0.10278,91.48548 -0.5775,92.19965 -1.13275,1.70551 2.57665,1.58886 -52.89319,1.67217 -27.907956,0.0279 -51.296086,-0.0186 -51.973688,-0.13891 z M 79.497402,226.1931 v -5.46909 h -6.964516 -6.964541 v 5.46909 5.46913 h 6.964541 6.964516 z m 34.396248,0 v -5.46909 h -6.82237 -6.82243 v 5.46909 5.46913 h 6.82243 6.82237 z m 34.6805,0 v -5.46909 h -6.96452 -6.96455 v 5.46909 5.46913 h 6.96455 6.96452 z M 86.319805,200.38948 V 186.78657 H 72.532886 58.745967 v 13.60291 13.60293 h 13.786919 13.786919 z m 34.680505,0 v -13.60291 h -13.7869 -13.786953 v 13.60291 13.60293 h 13.786953 13.7869 z m 34.39624,0 v -13.60291 h -13.78692 -13.78692 v 13.60291 13.60293 h 13.78692 13.78692 z M 80.918722,182.01856 v -2.24442 h -8.385836 -8.385861 v 2.05551 c 0,1.13058 0.08612,2.14165 0.188888,2.24443 0.105556,0.11105 3.877877,0.19446 8.38586,0.19446 h 8.196335 z m 34.621498,-0.0834 0.0833,-2.17778 -8.46894,0.0834 -8.469006,0.0834 -0.0861,1.79442 c -0.0472,0.98611 -0.0185,1.96666 0.0639,2.17777 0.12222,0.31664 1.634436,0.37222 8.471586,0.3111 l 8.32205,-0.0834 z m 34.45527,0.0834 v -2.24442 h -8.38586 -8.38586 v 2.24442 2.24441 h 8.38586 8.38586 z m -0.9161,-8.00937 0.63166,-0.43609 v -12.18461 -12.1849 h 2.13193 2.13191 v -6.1702 -6.1705 h -2.13191 -2.13193 v -1.80831 c 0,-1.54999 -0.0889,-1.86943 -0.63166,-2.24442 -0.56527,-0.39168 -5.27876,-0.43611 -44.74045,-0.43611 -43.005608,0 -44.125488,0.0117 -44.779812,0.5361 l -0.671108,0.53611 v 19.96313 19.96316 l 0.671108,0.53607 c 0.654437,0.52224 1.774148,0.53613 44.779812,0.53613 39.46169,0 44.17524,-0.0554 44.74045,-0.43612 z M 80.918692,118.07058 v -4.76803 h -8.243724 -8.243724 v 4.76803 4.768 h 8.243724 8.243696 z m 34.396248,0 v -4.76803 h -8.24372 -8.243756 v 4.76803 4.768 h 8.243756 8.24372 z m 34.6163,-0.0834 0.0778,-4.69802 h -8.39248 -8.39272 v 4.77218 4.77246 l 8.31477,-0.0834 8.31479,-0.0834 z m -69.076908,-16.26762 -0.07778,-4.83801 -8.172669,-0.0834 -8.17264,-0.0834 v 4.91245 4.91271 h 8.250447 8.250446 z m 68.998968,-0.0834 v -4.768 h -8.24372 -8.24373 l -0.0778,4.84217 -0.0778,4.84244 8.3215,-0.0834 8.32153,-0.0834 z m -39.2387,3.07581 c 4.97601,-1.27778 9.01961,-5.47523 10.07154,-10.452131 C 122.6364,85.03189 114.4787,76.46835 105.1031,77.90167 94.927108,79.45722 89.940908,90.65849 95.628713,99.18534 c 3.109921,4.66219 9.368527,6.97023 14.985887,5.52663 z M 80.918692,85.2283 v -4.76801 h -8.243724 -8.243724 v 4.76801 4.76802 h 8.243724 8.243696 z m 69.012548,0.0834 -0.0778,-4.69799 -8.31481,-0.0834 -8.31478,-0.0834 v 4.77217 4.77217 h 8.39278 8.39272 z m -58.277405,-20.61479 0.075,-8.62464 h -5.263032 -5.26303 v 8.70104 8.701 l 5.187865,-0.0834 5.187865,-0.0834 z m 40.148555,4.69775 v -0.98055 h -2.13192 -2.13193 v 0.98055 0.98054 h 2.13193 2.13192 z m 10.2336,-0.28057 v -0.98056 h -1.98998 -1.98998 v 0.98056 0.98055 h 1.98998 1.98998 z m 12.22343,0 v -0.98056 h -2.13192 -2.13192 v 0.98056 0.98055 h 2.13192 2.13192 z m -10.51784,-4.59772 c 0,-2.27221 -0.0805,-2.80581 -0.44972,-2.94527 -0.24722,-0.0834 -2.48581,-0.16651 -4.97467,-0.16651 h -4.52501 v 2.94496 2.94499 h 4.97467 4.97467 z m -12.22346,-0.57778 v -1.96385 h -0.99499 -0.99499 v 1.96385 1.96388 h 0.99499 0.99499 z m 22.7413,0.69999 v -0.98052 h -1.98998 -1.98998 v 0.98052 0.98055 h 1.98998 1.98998 z m 0,-3.36549 v -0.98058 h -1.98998 -1.98998 v 0.98058 0.9805 h 1.98998 1.98998 z M 137.77197,55.6634 v -2.3833 h -1.27915 -1.27916 v 2.3833 2.38332 h 1.27916 1.27915 z m 12.79199,-0.13891 v -2.5249 h -1.27915 -1.27916 v 2.52499 2.52497 h 1.27916 1.27915 z m -6.82238,-0.13891 v -2.3833 h -1.27915 -1.27916 v 2.3833 2.38332 h 1.27916 1.27915 z"
       id="path5273"
       inkscape:connector-curvature="0" />
    <path
       style="fill:#ff0000;fill-opacity:1;stroke:none;stroke-width:0.68494797;stroke-linecap:butt;stroke-linejoin:miter;stroke-miterlimit:4;stroke-dasharray:none;stroke-opacity:1"
       d="M 161.5908,232.40389 V 54.91231 c 0,-3.01467 -0.49389,-3.94021 -1.27389,-4.84299 -0.94388,-1.09166 -2.35053,-1.81664 -4.37612,-1.81664 H 61.295386 c -7.043736,-0.13891 -9.974899,3.39636 -9.962679,9.54046 v 173.84157 c -0.525826,6.05802 2.77414,7.38051 7.388427,7.07551 h 97.253096 c 4.88059,0.22222 5.77684,-2.63332 5.61654,-6.3069 z"
       id="path4551"
       inkscape:connector-curvature="0"
       sodipodi:nodetypes="cssscccccc" />
    <path
       style="fill:#deebf5;fill-opacity:1;stroke:#000000;stroke-width:0;stroke-linecap:butt;stroke-linejoin:miter;stroke-miterlimit:4;stroke-dasharray:none;stroke-opacity:1"
       d="m 58.818412,134.3182 v 38.0838 c 0.15554,1.35829 0.893323,2.00276 2.094702,2.0833 h 86.817236 c 1.0097,-0.16669 2.11248,-0.19443 2.11053,-2.09998 V 134.3393 c -0.20555,-1.78054 -1.17332,-1.79998 -2.04886,-2.03887 H 60.911723 c -0.912489,0.19443 -1.858592,0.33611 -2.093311,2.01666 z"
       id="path4564"
       inkscape:connector-curvature="0"
       sodipodi:nodetypes="ccccccccc" />
    <path
       style="fill:#32283a;fill-opacity:1;stroke:#000000;stroke-width:0;stroke-linecap:butt;stroke-linejoin:miter;stroke-miterlimit:4;stroke-dasharray:none;stroke-opacity:1"
       d="m 95.794794,145.83668 -0.05833,16.49292 h 16.744896 l -0.0639,-15.67624 -0.72193,-0.72778 z"
       id="path4589"
       inkscape:connector-curvature="0"
       sodipodi:nodetypes="cccccc" />
    <path
       style="fill:#4f3034;fill-opacity:1;stroke:#000000;stroke-width:0;stroke-linecap:butt;stroke-linejoin:miter;stroke-miterlimit:4;stroke-dasharray:none;stroke-opacity:1"
       d="m 61.61983,146.34336 0.03334,14.11152 14.237387,-0.0554 v -14.07959 z"
       id="path4591"
       inkscape:connector-curvature="0"
       sodipodi:nodetypes="ccccc" />
    <ellipse
       style="fill:#b64846;fill-opacity:1;stroke:#000000;stroke-width:0;stroke-miterlimit:4;stroke-dasharray:none;stroke-opacity:1"
       id="path4593"
       cx="68.803688"
       cy="153.33551"
       inkscape:transform-center-x="7.7405706"
       inkscape:transform-center-y="0.00031877177"
       rx="3.762969"
       ry="3.7127628" />
    <ellipse
       style="fill:#32293f;fill-opacity:1;stroke:#020202;stroke-width:0;stroke-miterlimit:4;stroke-dasharray:none;stroke-opacity:1"
       id="DIN"
       cx="107.08782"
       cy="91.481224"
       rx="13.791267"
       ry="13.60726" />
    <rect
       style="fill:#e5e4e3;fill-opacity:1;stroke:#000000;stroke-width:0;stroke-miterlimit:4;stroke-dasharray:none;stroke-opacity:1"
       id="rect4614"
       width="16.549522"
       height="9.5250816"
       x="64.334923"
       y="80.595009" />
    <rect
       style="fill:#deebf5;fill-opacity:1;stroke:#000100;stroke-width:0;stroke-miterlimit:4;stroke-dasharray:none;stroke-opacity:1"
       id="MB1"
       width="27.582535"
       height="27.21452"
       x="93.296585"
       y="186.73242" />
    <rect
       style="fill:#e5e4e3;fill-opacity:1;stroke:#000000;stroke-width:0;stroke-miterlimit:4;stroke-dasharray:none;stroke-opacity:1"
       id="rect4614-2"
       width="16.549522"
       height="9.5250816"
       x="64.334923"
       y="96.924316" />
    <rect
       style="fill:#e5e4e3;fill-opacity:1;stroke:#000000;stroke-width:0;stroke-miterlimit:4;stroke-dasharray:none;stroke-opacity:1"
       id="rect4614-2-6"
       width="16.549522"
       height="9.5250816"
       x="64.334923"
       y="113.25275" />
    <rect
       style="fill:#e5e4e3;fill-opacity:1;stroke:#000000;stroke-width:0;stroke-miterlimit:4;stroke-dasharray:none;stroke-opacity:1"
       id="rect4614-6"
       width="16.549522"
       height="9.5250816"
       x="133.29117"
       y="80.595009" />
    <rect
       style="fill:#e5e4e3;fill-opacity:1;stroke:#000000;stroke-width:0;stroke-miterlimit:4;stroke-dasharray:none;stroke-opacity:1"
       id="rect4614-2-8"
       width="16.549522"
       height="9.5250816"
       x="133.29117"
       y="96.924316" />
    <rect
       style="fill:#e5e4e3;fill-opacity:1;stroke:#000000;stroke-width:0;stroke-miterlimit:4;stroke-dasharray:none;stroke-opacity:1"
       id="rect4614-2-6-5"
       width="16.549522"
       height="9.5250816"
       x="133.29117"
       y="113.25275" />
    <rect
       style="fill:#e5e4e3;fill-opacity:1;stroke:#010101;stroke-width:0;stroke-miterlimit:4;stroke-dasharray:none;stroke-opacity:1"
       id="NEO"
       width="16.549522"
       height="9.5250816"
       x="98.813087"
       y="113.25275" />
    <rect
       style="fill:#e5e4e3;fill-opacity:1;stroke:#020000;stroke-width:0;stroke-miterlimit:4;stroke-dasharray:none;stroke-opacity:1"
       id="MA2"
       width="13.791267"
       height="10.885807"
       x="65.71405"
       y="220.74985" />
    <path
       style="fill:#ffffff;fill-opacity:1;stroke:#32283a;stroke-width:0.41096869;stroke-miterlimit:4;stroke-dasharray:none;stroke-opacity:1"
       d="m 117.82995,154.11829 v -4.08777 h 1.47082 1.47081 v 4.08777 4.08772 h -1.47081 -1.47082 z"
       id="LED"
       inkscape:connector-curvature="0" />
    <rect
       style="fill:#e5e4e3;fill-opacity:1;stroke:none;stroke-width:0;stroke-miterlimit:4;stroke-dasharray:none;stroke-opacity:1"
       id="rect4614-2-6-2-8-3-8-3-9"
       width="17.42099"
       height="10.420271"
       x="-73.461632"
       y="81.121231"
       transform="rotate(-90)" />
    <rect
       style="fill:#32293f;fill-opacity:1;stroke:none;stroke-width:0;stroke-miterlimit:4;stroke-dasharray:none;stroke-opacity:1"
       id="rect4866"
       width="4.3395715"
       height="11.271827"
       x="84.009132"
       y="58.779423" />
    <path
       style="fill:#000000;fill-opacity:1;stroke:#000000;stroke-width:0;stroke-miterlimit:4;stroke-dasharray:none;stroke-opacity:1"
       d="m 133.2913,181.96909 v -2.04164 h 8.27477 8.27476 v 2.04164 2.04167 h -8.27476 -8.27477 z"
       id="path5005"
       inkscape:connector-curvature="0" />
    <path
       style="fill:#000000;fill-opacity:1;stroke:#000000;stroke-width:0;stroke-miterlimit:4;stroke-dasharray:none;stroke-opacity:1"
       d="m 98.813104,181.96909 v -2.04164 h 8.274786 8.27478 v 2.04164 2.04167 h -8.27478 -8.274786 z"
       id="path5007"
       inkscape:connector-curvature="0" />
    <path
       style="fill:#000000;fill-opacity:1;stroke:#000000;stroke-width:0;stroke-miterlimit:4;stroke-dasharray:none;stroke-opacity:1"
       d="m 64.334912,181.96909 v -2.04164 h 8.274778 8.274752 v 2.04164 2.04167 H 72.60969 64.334912 Z"
       id="path5009"
       inkscape:connector-curvature="0" />
    <path
       style="fill:#4d4d4d;stroke:none;stroke-width:0.36165249;stroke-linecap:butt;stroke-linejoin:miter;stroke-miterlimit:4;stroke-dasharray:none;stroke-opacity:1"
       d="m 141.16461,150.82191 v 18.79039 h 5.03864 l 2.22498,-2.16666 v -14.2682 l -2.35581,-2.29163 z"
       id="path5021"
       inkscape:connector-curvature="0" />
    <path
       style="fill:#000000;stroke:#000000;stroke-width:0.3624514px;stroke-linecap:butt;stroke-linejoin:miter;stroke-opacity:1"
       d="m 127.58646,137.21373 -0.023,11.70598 26.23963,0.0555 -0.0694,-11.75126 z"
       id="path5025"
       inkscape:connector-curvature="0"
       sodipodi:nodetypes="ccccc" />
    <rect
       style="fill:#e5e4e3;fill-opacity:1;stroke:#000200;stroke-width:0;stroke-miterlimit:4;stroke-dasharray:none;stroke-opacity:1"
       id="MB2"
       width="13.791267"
       height="10.885807"
       x="100.19221"
       y="220.74985" />
    <rect
       style="fill:#e5e4e3;fill-opacity:1;stroke:#000002;stroke-width:0;stroke-miterlimit:4;stroke-dasharray:none;stroke-opacity:1"
       id="MC2"
       width="13.791267"
       height="10.885807"
       x="134.67027"
       y="220.74985" />
    <rect
       style="fill:#deebf5;fill-opacity:1;stroke:#000001;stroke-width:0;stroke-miterlimit:4;stroke-dasharray:none;stroke-opacity:1"
       id="MC1"
       width="27.582535"
       height="27.21452"
       x="127.77467"
       y="186.73242" />
    <rect
       style="fill:#deebf5;fill-opacity:1;stroke:#010000;stroke-width:0;stroke-miterlimit:4;stroke-dasharray:none;stroke-opacity:1"
       id="MA1"
       width="27.582535"
       height="27.21452"
       x="58.818428"
       y="186.73242" />
    <path
       style="fill:#32283a;fill-opacity:1;stroke:none;stroke-width:0;stroke-linecap:butt;stroke-linejoin:miter;stroke-miterlimit:4;stroke-dasharray:none;stroke-opacity:1"
       d="m 133.89112,61.6206 -0.0333,5.58273 h 9.74138 l -0.0388,-5.30635 -0.42,-0.25 z"
       id="path4589-2"
       inkscape:connector-curvature="0"
       sodipodi:nodetypes="cccccc" />
    <path
       style="fill:#8e9fa4;fill-opacity:1;stroke:none;stroke-width:0.3624514px;stroke-linecap:butt;stroke-linejoin:miter;stroke-opacity:1"
       d="m 141.21583,53.13789 v 4.6369 h 2.44192 v -4.68245 z"
       id="path5104"
       inkscape:connector-curvature="0" />
    <path
       style="fill:#8e9fa4;fill-opacity:1;stroke:none;stroke-width:0.3624514px;stroke-linecap:butt;stroke-linejoin:miter;stroke-opacity:1"
       d="m 135.3051,53.29929 v 4.63688 h 2.44193 v -4.68244 z"
       id="path5104-7"
       inkscape:connector-curvature="0" />
    <path
       style="fill:#8e9fa4;fill-opacity:1;stroke:none;stroke-width:0.3624514px;stroke-linecap:butt;stroke-linejoin:miter;stroke-opacity:1"
       d="m 148.02429,53.19651 v 4.6369 h 2.44191 v -4.68246 z"
       id="path5104-7-8"
       inkscape:connector-curvature="0" />
    <path
       style="fill:#8e9fa4;fill-opacity:1;stroke:none;stroke-width:0.27940944px;stroke-linecap:butt;stroke-linejoin:miter;stroke-opacity:1"
       d="m 154.13306,60.29505 h -3.81557 v 1.76388 h 3.85296 z"
       id="path5104-7-8-1"
       inkscape:connector-curvature="0" />
    <path
       style="fill:#8e9fa4;fill-opacity:1;stroke:none;stroke-width:0.27940944px;stroke-linecap:butt;stroke-linejoin:miter;stroke-opacity:1"
       d="m 154.1614,63.7803 h -3.81558 v 1.76386 h 3.85296 z"
       id="path5104-7-8-1-5"
       inkscape:connector-curvature="0" />
    <path
       style="fill:#8e9fa4;fill-opacity:1;stroke:none;stroke-width:0.27940944px;stroke-linecap:butt;stroke-linejoin:miter;stroke-opacity:1"
       d="m 154.02317,68.25802 h -3.81557 v 1.76387 h 3.85297 z"
       id="path5104-7-8-1-5-7"
       inkscape:connector-curvature="0" />
    <path
       style="fill:#8e9fa4;fill-opacity:1;stroke:none;stroke-width:0.27940944px;stroke-linecap:butt;stroke-linejoin:miter;stroke-opacity:1"
       d="m 141.90549,68.34886 h -3.81557 v 1.76386 h 3.85296 z"
       id="path5104-7-8-1-5-7-8"
       inkscape:connector-curvature="0" />
    <path
       style="fill:#8e9fa4;fill-opacity:1;stroke:none;stroke-width:0.27940944px;stroke-linecap:butt;stroke-linejoin:miter;stroke-opacity:1"
       d="m 131.58473,68.55357 h -3.81558 v 1.7639 h 3.85297 z"
       id="path5104-7-8-1-5-7-8-1"
       inkscape:connector-curvature="0" />
    <path
       style="fill:#8e9fa4;fill-opacity:1;stroke:none;stroke-width:0.27940944px;stroke-linecap:butt;stroke-linejoin:miter;stroke-opacity:1"
       d="m 129.51608,62.13893 v 3.76467 h 1.78748 v -3.80161 z"
       id="path5104-7-8-1-5-7-8-1-6"
       inkscape:connector-curvature="0" />
    <ellipse
       style="fill:#ffffff;fill-opacity:1;stroke:none;stroke-width:0.07001512;stroke-miterlimit:4;stroke-dasharray:none;stroke-opacity:1"
       id="path5226"
       cx="156.48096"
       cy="53.748291"
       rx="2.0334468"
       ry="2.0063162" />
    <ellipse
       style="fill:#ffffff;fill-opacity:0.98623855;stroke:none;stroke-width:0.07001512;stroke-miterlimit:4;stroke-dasharray:none;stroke-opacity:1"
       id="path5226-4"
       cx="57.822243"
       cy="54.251854"
       rx="2.0334468"
       ry="2.0063162" />
    <ellipse
       style="fill:#ffffff;fill-opacity:1;stroke:none;stroke-width:0.07001512;stroke-miterlimit:4;stroke-dasharray:none;stroke-opacity:1"
       id="path5226-4-0"
       cx="56.09301"
       cy="233.44592"
       rx="2.0334468"
       ry="2.0063162" />
    <ellipse
       style="fill:#ffffff;fill-opacity:1;stroke:none;stroke-width:0.07001512;stroke-miterlimit:4;stroke-dasharray:none;stroke-opacity:1"
       id="path5226-4-0-8"
       cx="154.87494"
       cy="234.21732"
       rx="2.0334468"
       ry="2.0063162" />
    <ellipse
       style="fill:#32293f;fill-opacity:1;stroke:#030202;stroke-width:0;stroke-miterlimit:4;stroke-dasharray:none;stroke-opacity:1"
       id="BCLK"
       cx="106.83414"
       cy="91.347916"
       rx="13.791268"
       ry="13.60726" />
    <ellipse
       style="fill:#32293f;fill-opacity:1;stroke:#040202;stroke-width:0;stroke-miterlimit:4;stroke-dasharray:none;stroke-opacity:1"
       id="LRCLK"
       cx="106.83414"
       cy="91.347923"
       rx="13.791269"
       ry="13.60726" />
  </g>
</svg>
